<svg xmlns="http://www.w3.org/2000/svg" xmlns:xlink="http://www.w3.org/1999/xlink" width="130" height="33" viewBox="0 0 130 33"><defs><style>.a,.c,.d{fill:#fff;}.a{stroke:#707070;}.b{clip-path:url(#a);}.d{stroke:#fff;stroke-miterlimit:10;stroke-width:0.9px;}</style><clipPath id="a"><rect class="a" width="130" height="33"/></clipPath></defs><g class="b"><g transform="translate(0 1.806)"><path class="c" d="M28.365,34.812,24.5,29.161l-1.255-4.592L20.569,20.99,17.083,18.1,13.39,23.858l-2.458.762L9.4,29.412,5.411,34.425l-.293-.413a14.5,14.5,0,0,1-2.868-8.675,14.794,14.794,0,0,1,29.587,0,14.5,14.5,0,0,1-3.154,9.107Zm-3.173-5.968,3.212,4.7A13.728,13.728,0,0,0,31.09,25.3,14.056,14.056,0,0,0,17.246,11.4h-.2A14.059,14.059,0,0,0,4.65,18.829a13.872,13.872,0,0,0,.787,14.356l3.29-4.127,1.606-5.032,2.569-.8,3.98-6.246,4.233,3.469,2.822,3.759Z" transform="translate(-2.251 -10.642)"/><path class="c" d="M26.23,31.34l-1.255-4.612-2.822-3.785L17.92,19.475l-3.98,6.246-2.569.8L9.765,31.553,5.987,36.294l.169.233a14.858,14.858,0,0,0,23.565.381l.169-.213Zm-5.566-8.029h0l1.489,1.518,1.548,2.39L18.57,29.99,16.209,33.5l-6.8,2.732-1.951-.31,3.128-3.649h0l1.652-4.638,2.354-.878,3.531-5.561" transform="translate(-3.289 -13.138)"/><path class="d" d="M24.058,14.181Z" transform="translate(-6.683 -4.008)"/><path class="c" d="M48.421,27.235a9.322,9.322,0,0,1,1.749-6.072,6.086,6.086,0,0,1,4.987-2.125,7,7,0,0,1,2.972.588,5.541,5.541,0,0,1,2.139,1.666,7.24,7.24,0,0,1,1.248,2.584,12.772,12.772,0,0,1,.41,3.352A9.29,9.29,0,0,1,60.165,33.3a6.1,6.1,0,0,1-4.974,2.125,7.116,7.116,0,0,1-2.991-.581,5.54,5.54,0,0,1-2.1-1.666,7.439,7.439,0,0,1-1.236-2.584,12.837,12.837,0,0,1-.442-3.359Zm3.251,0a10.96,10.96,0,0,0,.208,2.2,5.616,5.616,0,0,0,.65,1.725,3.059,3.059,0,0,0,5.2.245,7.355,7.355,0,0,0,.9-4.166,11.089,11.089,0,0,0-.189-2.138,6.019,6.019,0,0,0-.6-1.738,3.1,3.1,0,0,0-1.06-1.156,3.2,3.2,0,0,0-4.175.9,7.3,7.3,0,0,0-.923,4.134Z" transform="translate(-15.076 -13.012)"/><path class="c" d="M72.846,25.759v6.395a4.4,4.4,0,0,0,.325,1.983,1.3,1.3,0,0,0,1.3.607,2.031,2.031,0,0,0,1.4-.491,3.093,3.093,0,0,0,.826-1.221V25.759h2.946V33.6a11.7,11.7,0,0,0,.091,1.809,10.605,10.605,0,0,0,.254,1.582H77.762l-.52-1.666h-.091A4.142,4.142,0,0,1,73.5,37.308a4.718,4.718,0,0,1-1.541-.226,2.512,2.512,0,0,1-1.138-.736,3.434,3.434,0,0,1-.689-1.376,8.343,8.343,0,0,1-.241-2.2V25.759Z" transform="translate(-21.04 -14.914)"/><path class="c" d="M85.309,24.586h1.567V22.468l2.946-.859V24.56h2.764v2.48H89.822v4.321a4.179,4.179,0,0,0,.241,1.679.892.892,0,0,0,.891.5,2.834,2.834,0,0,0,.787-.09,5.813,5.813,0,0,0,.735-.265L93,35.438a7.753,7.753,0,0,1-1.424.5,6.851,6.851,0,0,1-1.658.2,3.01,3.01,0,0,1-2.3-.794,3.856,3.856,0,0,1-.735-2.629V27.067H85.309Z" transform="translate(-25.323 -13.741)"/><path class="c" d="M107.312,31.285v1.893a16.353,16.353,0,0,0,.2,2.093h-2.107L105,33.8h-.091a3.364,3.364,0,0,1-1.3,1.292,3.988,3.988,0,0,1-2.009.484,4.1,4.1,0,0,1-3.31-1.4,6.692,6.692,0,0,1-1.177-4.366,6.859,6.859,0,0,1,1.3-4.483,4.7,4.7,0,0,1,3.856-1.6,7.122,7.122,0,0,1,1.157.078,4.928,4.928,0,0,1,.9.265V19.484h2.946Zm-5.007,1.8a2.058,2.058,0,0,0,1.359-.42,2.257,2.257,0,0,0,.689-1.2V26.692a2.3,2.3,0,0,0-.7-.375,3.311,3.311,0,0,0-.995-.123,2.191,2.191,0,0,0-1.873.833,4.884,4.884,0,0,0-.65,2.861,4.631,4.631,0,0,0,.507,2.319A1.746,1.746,0,0,0,102.305,33.087Z" transform="translate(-28.598 -13.141)"/><path class="c" d="M114.066,31.264a6.32,6.32,0,0,1,1.4-4.405,5.077,5.077,0,0,1,3.947-1.544,5.887,5.887,0,0,1,2.36.433,4.381,4.381,0,0,1,1.652,1.2,5.194,5.194,0,0,1,.988,1.88,8.691,8.691,0,0,1,.325,2.435,6.333,6.333,0,0,1-1.392,4.4,5.018,5.018,0,0,1-3.934,1.544,5.992,5.992,0,0,1-2.36-.426,4.55,4.55,0,0,1-1.665-1.208,5,5,0,0,1-.995-1.886,8.375,8.375,0,0,1-.332-2.422Zm3.037,0a6.538,6.538,0,0,0,.137,1.376,3.718,3.718,0,0,0,.41,1.1,1.944,1.944,0,0,0,.715.736,2.086,2.086,0,0,0,1.053.258,1.955,1.955,0,0,0,1.723-.833,4.785,4.785,0,0,0,.566-2.635,5.273,5.273,0,0,0-.52-2.513,1.85,1.85,0,0,0-1.769-.93,2.021,2.021,0,0,0-1.7.807,4.5,4.5,0,0,0-.611,2.635Z" transform="translate(-33.311 -14.786)"/><path class="c" d="M130.921,31.264a6.291,6.291,0,0,1,1.411-4.405,5.064,5.064,0,0,1,3.941-1.544,5.848,5.848,0,0,1,2.36.433,4.381,4.381,0,0,1,1.652,1.2,5.1,5.1,0,0,1,.988,1.88,8.454,8.454,0,0,1,.332,2.435,6.314,6.314,0,0,1-1.4,4.4,5.012,5.012,0,0,1-3.934,1.544,5.953,5.953,0,0,1-2.354-.426,4.5,4.5,0,0,1-1.671-1.208,5.188,5.188,0,0,1-.995-1.886,8.376,8.376,0,0,1-.332-2.422Zm3.043,0a6.539,6.539,0,0,0,.137,1.376,3.71,3.71,0,0,0,.4,1.1,2,2,0,0,0,.7.736,2.1,2.1,0,0,0,1.053.258,1.955,1.955,0,0,0,1.723-.833,4.785,4.785,0,0,0,.566-2.635,5.2,5.2,0,0,0-.52-2.513,1.843,1.843,0,0,0-1.756-.93,2.021,2.021,0,0,0-1.717.782,4.5,4.5,0,0,0-.592,2.661Z" transform="translate(-37.992 -14.787)"/><path class="c" d="M154.8,28.409a3.8,3.8,0,0,0-1.268-.252,2.071,2.071,0,0,0-1.3.42,1.976,1.976,0,0,0-.715,1.066V36.89h-2.959V25.657h2.3l.338,1.486h.091a3.026,3.026,0,0,1,1.04-1.292,2.653,2.653,0,0,1,1.541-.452,4.416,4.416,0,0,1,1.34.245Z" transform="translate(-42.892 -14.812)"/><path class="c" d="M162.628,31.465a2.447,2.447,0,0,0,.208,1.169.7.7,0,0,0,.65.355,2.844,2.844,0,0,0,1.183-.245l.319,2.3a5.606,5.606,0,0,1-1.112.355,6.368,6.368,0,0,1-1.541.181,2.927,2.927,0,0,1-1.951-.594,2.5,2.5,0,0,1-.683-1.938V19.484h2.946Z" transform="translate(-45.985 -13.141)"/><path class="c" d="M172.335,32.079l.41,1.757h.137l.293-1.783,1.723-6.3h3.037l-3.446,10.16c-.286.84-.559,1.608-.826,2.306a10.547,10.547,0,0,1-.871,1.815,4.136,4.136,0,0,1-1.053,1.182,2.3,2.3,0,0,1-1.372.413,3.924,3.924,0,0,1-1.886-.381l.546-2.345a1.838,1.838,0,0,0,.683.136,1.487,1.487,0,0,0,1.008-.439,2.975,2.975,0,0,0,.735-1.615l-4.74-11.258h3.537Z" transform="translate(-47.934 -14.904)"/></g></g></svg>